<svg width="41" height="41" viewBox="0 0 41 41" fill="none" xmlns="http://www.w3.org/2000/svg">
<g clip-path="url(#clip0_582_2)">
<path opacity="0.15" fill-rule="evenodd" clip-rule="evenodd" d="M12.5 1.5C11.3954 1.5 10.5 2.39543 10.5 3.5V37.5C10.5 38.6046 11.3954 39.5 12.5 39.5H28.4C29.5046 39.5 30.4 38.6046 30.4 37.5V3.5C30.4 2.39543 29.5046 1.5 28.4 1.5H25.1631V2.5H15.7368V1.5H12.5Z" fill="url(#paint0_linear_582_2)"/>
<path d="M18.0084 36.1745C17.6349 36.1745 17.3321 36.4773 17.3321 36.8508C17.3321 37.2243 17.6349 37.5271 18.0084 37.5271V36.1745ZM22.9632 37.5271C23.3367 37.5271 23.6395 37.2243 23.6395 36.8508C23.6395 36.4773 23.3367 36.1745 22.9632 36.1745V37.5271ZM9.8999 29.9141C9.8999 30.2876 10.2027 30.5904 10.5762 30.5904C10.9498 30.5904 11.2526 30.2876 11.2526 29.9141H9.8999ZM11.2526 32.887C11.2526 32.5134 10.9498 32.2106 10.5762 32.2106C10.2027 32.2106 9.8999 32.5134 9.8999 32.887H11.2526ZM29.7191 8.11303C29.7191 8.48656 30.0219 8.78936 30.3954 8.78936C30.7689 8.78936 31.0717 8.48656 31.0717 8.11303H29.7191ZM31.0717 11.0859C31.0717 10.7124 30.7689 10.4096 30.3954 10.4096C30.0219 10.4096 29.7191 10.7124 29.7191 11.0859H31.0717ZM27.9799 39.1473H12.9917V40.5H27.9799V39.1473ZM12.9917 1.85266H16.0265V0.5H12.9917V1.85266ZM15.3502 2.19206H16.7028V1.17633H15.3502V2.19206ZM16.9927 3.83457H23.979V2.48191H16.9927V3.83457ZM16.0265 1.85266H24.9451V0.5H16.0265V1.85266ZM24.9451 1.85266H27.9799V0.5H24.9451V1.85266ZM25.6215 2.19206V1.17633H24.2688V2.19206H25.6215ZM18.0084 37.5271H22.9632V36.1745H18.0084V37.5271ZM11.2526 29.9141V3.59179H9.8999V29.9141H11.2526ZM11.2526 37.4082V32.887H9.8999V37.4082H11.2526ZM29.7191 3.59179V8.11303H31.0717V3.59179H29.7191ZM29.7191 11.0859V37.4082H31.0717V11.0859H29.7191ZM23.979 3.83457C24.8861 3.83457 25.6215 3.0992 25.6215 2.19206H24.2688C24.2688 2.35214 24.1391 2.48191 23.979 2.48191V3.83457ZM12.9917 39.1473C12.0312 39.1473 11.2526 38.3687 11.2526 37.4082H9.8999C9.8999 39.1157 11.2841 40.5 12.9917 40.5V39.1473ZM27.9799 40.5C29.6875 40.5 31.0717 39.1157 31.0717 37.4082H29.7191C29.7191 38.3687 28.9404 39.1473 27.9799 39.1473V40.5ZM27.9799 1.85266C28.9404 1.85266 29.7191 2.63129 29.7191 3.59179H31.0717C31.0717 1.88424 29.6875 0.5 27.9799 0.5V1.85266ZM15.3502 2.19206C15.3502 3.0992 16.0855 3.83457 16.9927 3.83457V2.48191C16.8326 2.48191 16.7028 2.35214 16.7028 2.19206H15.3502ZM12.9917 0.5C11.2841 0.5 9.8999 1.88424 9.8999 3.59179H11.2526C11.2526 2.63129 12.0312 1.85266 12.9917 1.85266V0.5Z" fill="url(#paint1_linear_582_2)"/>
</g>
<defs>
<linearGradient id="paint0_linear_582_2" x1="20.45" y1="1.5" x2="20.45" y2="39.5" gradientUnits="userSpaceOnUse">
<stop stop-color="#CBFF33"/>
<stop offset="0.73" stop-color="#70D013"/>
<stop offset="1" stop-color="#4FBF07"/>
</linearGradient>
<linearGradient id="paint1_linear_582_2" x1="20.4858" y1="0.5" x2="20.4858" y2="40.5" gradientUnits="userSpaceOnUse">
<stop stop-color="#CBFF33"/>
<stop offset="0.73" stop-color="#70D013"/>
<stop offset="1" stop-color="#4FBF07"/>
</linearGradient>
<clipPath id="clip0_582_2">
<rect width="40" height="40" fill="white" transform="translate(0.5 0.5)"/>
</clipPath>
</defs>
</svg>
