<svg width="36" height="36" viewBox="0 0 36 36" fill="none" xmlns="http://www.w3.org/2000/svg">
<rect width="36" height="36" rx="10" fill="url(#paint0_linear_782_4)"/>
<path d="M12.8253 13.8746L12.5923 15.4251H9.24787V17.6249H12.1674V19.1488H9.24787V21.4944H12.8253V23.0581H7V13.8746H12.8253Z" fill="white"/>
<path d="M16.6697 15.7961C17.1906 15.7961 17.6794 15.8712 18.1363 16.0214C18.5932 16.1716 18.9953 16.3836 19.3425 16.6575L18.5475 17.8369C17.9536 17.4747 17.3551 17.2936 16.752 17.2936C16.4687 17.2936 16.2494 17.3422 16.0941 17.4393C15.9479 17.5277 15.8748 17.6558 15.8748 17.8236C15.8748 17.9562 15.9067 18.0666 15.9707 18.1549C16.0438 18.2345 16.1854 18.3184 16.3956 18.4067C16.6058 18.4951 16.9302 18.6011 17.3688 18.7248C18.1272 18.9368 18.6892 19.2151 19.0547 19.5596C19.4293 19.8953 19.6166 20.3636 19.6166 20.9643C19.6166 21.4414 19.475 21.8566 19.1917 22.21C18.9085 22.5545 18.5201 22.8196 18.0267 23.0051C17.5332 23.1906 16.985 23.2834 16.3819 23.2834C15.7697 23.2834 15.1986 23.1906 14.6686 23.0051C14.1477 22.8196 13.7046 22.5634 13.339 22.2365L14.3945 21.0968C15.0067 21.5562 15.6509 21.7859 16.3271 21.7859C16.656 21.7859 16.9119 21.7285 17.0946 21.6137C17.2865 21.4988 17.3825 21.3354 17.3825 21.1233C17.3825 20.9555 17.3459 20.823 17.2728 20.7258C17.1997 20.6286 17.0581 20.5403 16.8479 20.4608C16.6378 20.3724 16.3042 20.2664 15.8473 20.1427C15.1255 19.9395 14.5863 19.6568 14.23 19.2946C13.8736 18.9324 13.6954 18.4818 13.6954 17.9429C13.6954 17.5365 13.8142 17.1743 14.0518 16.8563C14.2985 16.5294 14.6457 16.2732 15.0935 16.0877C15.5504 15.8933 16.0758 15.7961 16.6697 15.7961Z" fill="white"/>
<path d="M22.6649 23.2834C22.0344 23.2834 21.541 23.1111 21.1846 22.7666C20.8374 22.4132 20.6638 21.914 20.6638 21.2691V13.2253L22.8294 13V21.1896C22.8294 21.4811 22.9528 21.6269 23.1995 21.6269C23.3274 21.6269 23.4462 21.6048 23.5559 21.5607L23.9808 23.0449C23.5878 23.2039 23.1492 23.2834 22.6649 23.2834Z" fill="white"/>
<path d="M28.6836 23.0714C28.3912 23.9813 27.9115 24.6792 27.2444 25.1651C26.5865 25.6599 25.7001 25.9382 24.5853 26L24.3523 24.5291C25.0468 24.4407 25.5585 24.2905 25.8875 24.0785C26.2256 23.8665 26.4951 23.5263 26.6962 23.0581H25.956L23.7355 16.0214H26.0382L27.3404 21.7197L28.7658 16.0214H31L28.6836 23.0714Z" fill="white"/>
<defs>
<linearGradient id="paint0_linear_782_4" x1="0.091176" y1="36" x2="41.0885" y2="7.43389" gradientUnits="userSpaceOnUse">
<stop stop-color="#CCFF33"/>
<stop offset="0.49" stop-color="#9AFF29"/>
<stop offset="1" stop-color="#68FF20"/>
</linearGradient>
</defs>
</svg>
